<svg width="35" height="36" viewBox="0 0 35 36" fill="none" xmlns="http://www.w3.org/2000/svg">
<path d="M16.4631 0.0241332C13.5259 0.181386 10.8018 1.05407 8.28436 2.64558L7.90422 2.88614L7.66122 2.76289C6.14093 2.00722 4.3592 3.12981 4.36228 4.84457C4.36228 5.15313 4.41088 5.43675 4.50221 5.68666C4.56003 5.83484 4.60248 5.76372 4.11592 6.34684C3.14308 7.51872 2.2613 8.94052 1.61693 10.3838C0.756374 12.3054 0.267021 14.1775 0.0569794 16.3521C-0.0189931 17.1293 -0.0189931 18.8749 0.0569794 19.6521C0.224287 21.404 0.592139 23.0171 1.16082 24.5253C2.12751 27.0759 3.59305 29.3151 5.49013 31.1469C6.08926 31.7269 6.42359 32.0136 7.01042 32.4639C9.29379 34.2098 11.869 35.3355 14.6085 35.7826C16.4084 36.0725 18.2812 36.0725 20.0811 35.7826C22.3189 35.4188 24.6355 34.5212 26.487 33.3091L26.6756 33.1858L26.8367 33.266C26.9797 33.3368 27.0345 33.3462 27.3325 33.3462C27.6333 33.3462 27.685 33.3368 27.84 33.2629C28.3204 33.0345 28.6185 32.4857 28.5364 31.9737L28.5059 31.804L28.7704 31.5572C29.7251 30.6689 30.4669 29.8486 31.1482 28.9201C33.8843 25.1945 35.1066 20.5557 34.5837 15.8985C33.8874 9.7333 30.1781 4.38217 24.7481 1.71425C22.194 0.459058 19.3057 -0.130286 16.4631 0.0241332ZM19.0778 0.804448C24.4288 1.40881 29.0897 4.54849 31.7836 9.36298C33.0514 11.63 33.7994 14.1775 33.9787 16.8454C34.0485 17.8787 33.9877 19.4949 33.8357 20.5466C33.3067 24.2847 31.5766 27.7729 28.9346 30.4221C28.7126 30.6474 28.4361 30.9126 28.3235 31.0143L28.1199 31.1993L27.9861 31.1101C27.7884 30.9775 27.5149 30.9126 27.2443 30.9341C26.5086 30.9897 25.9915 31.7144 26.1739 32.4361C26.2013 32.544 26.2136 32.6429 26.2013 32.6551C26.1223 32.7294 25.2131 33.2535 24.7631 33.4819C23.1001 34.3362 21.4279 34.8697 19.5945 35.1318C18.8314 35.2428 18.3298 35.2737 17.3446 35.2737C16.0587 35.2737 15.2286 35.1935 14.046 34.9499C10.7381 34.2744 7.56374 32.4486 5.24099 29.8886C2.64452 27.0235 1.12423 23.5475 0.738219 19.5904C0.686546 19.0506 0.686546 16.9502 0.738219 16.4136C1.09685 12.7619 2.37694 9.60976 4.62986 6.82794L4.94911 6.43297L5.0586 6.53781C5.36249 6.82794 5.6971 7.00985 6.11048 7.11468C6.50571 7.21329 7.00121 7.19487 7.37827 7.06227C8.0989 6.80924 8.66143 6.208 8.86505 5.46452C8.95638 5.14066 8.96225 4.61025 8.88041 4.29263C8.8103 4.01808 8.67958 3.7251 8.54272 3.53385L8.4363 3.38283L8.60976 3.27176C9.27563 2.83995 10.5191 2.19847 11.2791 1.89304C12.6807 1.33174 14.2314 0.946117 15.6269 0.810398C15.8945 0.782631 16.1682 0.755147 16.2349 0.748914C16.5665 0.71803 18.6613 0.75798 19.0778 0.804448Z" fill="#008080"/>
<path d="M18.7272 5.16229C18.4506 5.19006 17.9155 5.29801 17.6082 5.38726C16.2522 5.78224 15.1609 6.57474 14.4129 7.70979C14.0724 8.23113 13.8353 8.79243 13.6923 9.42144C13.604 9.8133 13.5797 10.5843 13.6468 10.9699C13.7806 11.7471 14.2367 12.6878 14.8903 13.5452C15.4224 14.239 16.4469 15.229 17.9216 16.4752C19.7304 18.0049 21.427 19.618 22.035 20.392C22.7495 21.3018 23.3486 22.4338 23.6221 23.3838C23.9385 24.4942 23.8989 25.8174 23.5067 27.1465C23.2179 28.1306 22.6615 29.1452 21.9987 29.904C21.8892 30.0304 21.7462 30.1939 21.6795 30.2678L21.5638 30.4035L21.725 30.3386C22.4121 30.0644 22.9685 29.796 23.5523 29.4566C24.4888 28.9109 25.2915 28.2878 26.0971 27.486C27.1704 26.4186 27.9729 25.3023 28.6237 23.9791C29.3625 22.474 29.8002 20.9071 29.9644 19.174C30.013 18.6804 30.013 17.3294 29.9644 16.8299C29.7943 15.0349 29.32 13.3817 28.5416 11.8641C27.8908 10.5996 27.2006 9.6467 26.1943 8.62271C24.5648 6.96943 22.7437 5.89926 20.5058 5.2762C20.1014 5.16541 20.0863 5.16229 19.4721 5.15606C19.1285 5.14983 18.7942 5.15294 18.7272 5.16229Z" fill="#008080"/>
<path d="M12.7535 5.75462C10.6405 6.62107 8.83449 8.00603 7.41476 9.84433C5.03419 12.9347 4.13732 17.0737 5.00375 20.9722C5.45372 23.0014 6.38717 24.9168 7.71278 26.5361C8.13231 27.0481 9.01409 27.9239 9.52467 28.3404C10.1967 28.8833 11.0511 29.4415 11.7776 29.8115C12.4921 30.1756 13.5716 30.5793 14.0459 30.6598C16.0921 31.0052 18.1442 30.4408 19.5338 29.1516C20.4337 28.3189 20.9962 27.3442 21.2423 26.1998C21.2971 25.9346 21.3094 25.7867 21.3124 25.2962C21.3124 24.9168 21.2971 24.6332 21.2697 24.4944C21.127 23.7509 20.6739 22.7918 20.1022 22.0146C19.6857 21.4471 18.3632 20.1547 16.9158 18.9086C15.7212 17.8787 15.3927 17.5917 14.9732 17.2154C14.3894 16.6881 13.1216 15.402 12.863 15.0719C12.0421 14.0264 11.4279 12.731 11.2274 11.6177C11.1332 11.0995 11.1332 10.128 11.2304 9.56666C11.4251 8.40384 11.7625 7.50027 12.3432 6.59047C12.5044 6.33745 12.6259 6.17708 12.9937 5.72374C13.0334 5.67444 13.0607 5.6342 13.0546 5.6342C13.0485 5.6342 12.9119 5.68974 12.7535 5.75462Z" fill="#008080"/>
</svg>
