<svg width="23" height="24" viewBox="0 0 23 24" fill="none" xmlns="http://www.w3.org/2000/svg">
<path d="M4.64616 13.0501C5.91308 13.0501 6.96313 12.1233 7.14552 10.9106H2.14673C2.32913 12.1234 3.3792 13.0501 4.64616 13.0501Z" fill="black"/>
<path d="M2.11255 8.67761H7.18012V9.92482H2.11255V8.67761Z" fill="black"/>
<path d="M9.24218 2.20483C9.4936 1.32364 8.83178 0.446167 7.9161 0.446167C7.19019 0.446167 6.58879 1.00814 6.53947 1.73281L6.13525 7.69168H7.67701L9.24218 2.20483Z" fill="black"/>
<path d="M3.16116 7.69168L2.75694 1.73281C2.70765 1.00814 2.10622 0.446167 1.38032 0.446167C0.463409 0.446167 -0.198418 1.32364 0.0542351 2.20483L1.62063 7.69171L3.16116 7.69168Z" fill="black"/>
<path d="M5.64101 7.69169L6.03908 1.46781C6.08961 0.672901 5.45862 0 4.66246 0H4.63288C3.83674 0 3.20574 0.672901 3.25625 1.46781L3.65432 7.69169H5.64101Z" fill="black"/>
<path d="M22.812 6.43321C22.8059 6.4098 22.8022 6.38638 22.7923 6.36296C22.5507 5.47316 22.1046 4.65235 21.4317 3.98068C20.7748 3.32381 19.9528 2.8604 19.0383 2.6127C19.0297 2.609 19.0199 2.609 19.0112 2.60654C18.5195 2.4759 18.0031 2.40442 17.4682 2.40442C16.5057 2.40442 15.5383 2.62379 14.63 3.02804C14.6189 3.03174 14.609 3.03913 14.5979 3.04406C13.7648 3.41995 12.9834 3.95112 12.3031 4.62033C12.297 4.62526 12.2896 4.62773 12.2847 4.63266C12.281 4.63636 12.2797 4.64129 12.2773 4.64498C12.2723 4.64991 12.2662 4.65484 12.26 4.661C11.5748 5.34624 11.0645 6.11527 10.7219 6.91756C10.6961 6.96193 10.6776 7.00753 10.6677 7.05683C10.1365 8.38414 10.0712 9.79774 10.4804 11.0956C10.4878 11.1251 10.4952 11.1535 10.5087 11.1818C10.7096 11.7845 11.0116 12.3588 11.4183 12.8875L5.62819 18.675L5.79703 18.8439C5.50988 18.5567 5.0428 18.5567 4.7544 18.8439L1.62772 21.9706C1.34056 22.2577 1.34056 22.7248 1.62772 23.0132L2.39921 23.7847C2.68637 24.0718 3.15345 24.0718 3.44185 23.7847L6.56853 20.658C6.85568 20.3709 6.85568 19.9038 6.56853 19.6166L6.73737 19.7854L12.5274 13.9932C13.0525 14.3974 13.6305 14.7067 14.2454 14.9126C14.2565 14.9175 14.2676 14.92 14.2787 14.9249C14.853 15.1122 15.4557 15.2145 16.0719 15.2145C16.8656 15.2145 17.6519 15.0469 18.4024 14.7376C18.4221 14.7314 18.4406 14.7252 18.4591 14.7154C19.2836 14.3654 20.0625 13.8416 20.7514 13.1527C20.7576 13.1465 20.7613 13.1404 20.7674 13.1354C20.7711 13.1317 20.7761 13.1317 20.7785 13.128C20.7834 13.1231 20.7859 13.1157 20.7908 13.1095C21.4748 12.4157 22.0023 11.6319 22.3708 10.8111C22.377 10.7987 22.3819 10.7864 22.3856 10.7741C23.0178 9.34448 23.1657 7.80867 22.812 6.43321ZM21.7891 6.41842L20.1118 8.09698L19.0617 7.04696L21.062 5.04675C21.3886 5.45962 21.6301 5.92296 21.7891 6.41842ZM15.8353 8.87958L14.6953 10.0196L13.6453 8.96956L14.7853 7.82956L15.8353 8.87958ZM15.4816 7.13322L16.6166 5.99814L17.6667 7.04816L16.5316 8.18324L15.4816 7.13322ZM16.5316 9.57712L17.5816 10.6271L16.4416 11.7671L15.3916 10.7171L16.5316 9.57712ZM17.2291 8.87958L18.3642 7.74451L19.4142 8.79452L18.2791 9.9296L17.2291 8.87958ZM20.3632 4.35151L18.3642 6.3505L17.3142 5.30048L18.9878 3.62684C19.4919 3.78952 19.9577 4.03106 20.3632 4.35151ZM17.4682 3.39021C17.5853 3.39021 17.6999 3.39761 17.8158 3.40623L16.6178 4.60416L15.6898 3.67615C16.2716 3.48882 16.8717 3.39021 17.4682 3.39021ZM14.7064 4.08652L15.9203 5.30048L14.7852 6.43556L13.3494 4.99977C13.7709 4.63622 14.2269 4.33176 14.7064 4.08652ZM12.6482 5.69236L14.0877 7.13183L12.9477 8.27183L11.7313 7.05542C11.9642 6.5834 12.2699 6.12494 12.6482 5.69236ZM11.2235 9.99611C11.1373 9.36265 11.1779 8.7107 11.3492 8.06859L12.2502 8.9695L11.2235 9.99611ZM12.2982 12.4154C11.9593 12.0074 11.6968 11.565 11.5119 11.1016L12.9477 9.66581L13.9977 10.7158L12.2982 12.4154ZM12.9957 13.1141L14.6952 11.4146L15.7453 12.4647L14.3181 13.8918C13.8449 13.7045 13.3975 13.4456 12.9957 13.1141ZM16.0719 14.227C15.8537 14.227 15.6381 14.2073 15.4248 14.1777L16.4416 13.1609L17.3363 14.0557C16.9198 14.1654 16.497 14.227 16.0719 14.227ZM18.3519 13.6773L17.1391 12.4646L18.2791 11.3246L19.7186 12.7641C19.2897 13.1375 18.8313 13.4432 18.3519 13.6773ZM20.4125 12.0641L18.9755 10.6271L20.1105 9.492L21.3257 10.7072C21.0842 11.1792 20.7809 11.6377 20.4125 12.0641ZM21.7336 9.72001L20.8081 8.79446L22.006 7.59654C22.0516 8.29038 21.9592 9.01137 21.7336 9.72001Z" fill="black"/>
</svg>
