<svg width="23" height="24" viewBox="0 0 23 24" fill="none" xmlns="http://www.w3.org/2000/svg">
<path d="M14.9717 19.1217H14.9258C14.3025 20.5237 13.8563 22.0498 13.6051 23.6685V23.6737L13.5999 23.68V23.7019L13.5937 23.7071V23.7248L13.5885 23.7415L13.5832 23.7477L13.577 23.7592V23.7644L13.5718 23.7759V23.7811L13.5666 23.7863V23.7926L13.5603 23.7978V23.803L13.5541 23.8113L13.5488 23.8165V23.8228L13.5436 23.828L13.5384 23.8343V23.8395H13.5322V23.8457L13.527 23.8509V23.8572H13.5207V23.8624H13.5155V23.8687L13.5103 23.8739L13.5051 23.8801L13.4988 23.8853C13.4529 23.9312 13.3956 23.9656 13.3383 23.9823H13.3331L13.3279 23.9875H13.3227L13.3133 23.9885H13.3081L13.3028 23.9937H13.2757V23.999H13.2111L13.1986 24H13.1715V23.9948H13.1434L13.1319 23.9896H13.1256L13.1183 23.9885L13.1069 23.9833H13.0965V23.9781H13.0808L13.0798 23.9708H13.0683L13.0621 23.9656H13.0568L13.0516 23.9604H13.0454V23.9541H13.0339V23.9489H13.0235V23.9427H13.0172L13.012 23.9375L13.0068 23.9312H13.0006V23.926L12.9933 23.9249L12.9818 23.9135H12.9755V23.9072H12.9693L12.9641 23.902L12.9589 23.8958H12.9526L10.4989 21.5681L8.03882 23.8958L8.03361 23.902H8.0284V23.9072H8.02215V23.9135H8.01693V23.9187L8.01172 23.9197L8.00651 23.926H8.0013V23.9312H7.99504L7.98983 23.9375L7.98462 23.9427L7.97315 23.9489H7.9669L7.96169 23.9541L7.95022 23.9604H7.94501V23.9656H7.9398C7.93354 23.9656 7.92833 23.9708 7.92208 23.9708L7.91687 23.9771H7.91165L7.90019 23.9823H7.88559L7.87413 23.9875H7.86266V23.9927H7.85224L7.84598 23.9937H7.82826L7.82305 23.999H7.72611V23.9937H7.69067V23.9885H7.66982V23.9833H7.6594L7.65106 23.9823V23.9771H7.63438V23.9708H7.62292V23.9656H7.61145V23.9604H7.59998L7.59477 23.9541L7.58956 23.9489H7.57914L7.56767 23.9375H7.56142C7.54474 23.9197 7.52702 23.9093 7.50409 23.8916L5.05033 21.5692L2.59137 23.8968L2.58616 23.9031H2.5799V23.9083H2.57469V23.9145H2.56844L2.56322 23.9198L2.55801 23.926H2.55176V23.9312H2.54342L2.53821 23.9375L2.53299 23.9427H2.52778L2.52153 23.9489H2.51632V23.9542H2.50381V23.9604H2.4986L2.49338 23.9656H2.48713L2.48192 23.9708H2.47045L2.46316 23.9771H2.45169L2.44648 23.9823H2.44022L2.42876 23.9875H2.41104L2.40582 23.9927H2.37768V23.9979H2.35162L2.34328 23.999H2.27657V23.9938H2.24947L2.24426 23.9886H2.22862L2.22341 23.9833H2.20673V23.9781H2.19631L2.1838 23.9708H2.17859L2.17233 23.9656H2.16191V23.9604C2.14523 23.9542 2.13376 23.9489 2.11604 23.9375H2.11083L2.10875 23.9312L2.09728 23.926H2.09102V23.9198H2.08581L2.0806 23.9145L2.07539 23.9083L2.06392 23.8968H2.05871V23.8916L2.05246 23.8854H2.04725V23.8801L2.04203 23.8739C2.02431 23.8572 2.01285 23.8457 2.00242 23.828V23.8166L1.99721 23.8113L1.98366 23.7936V23.7874L1.97845 23.7822V23.7769H1.97219V23.7655L1.96698 23.7603V23.7488L1.96177 23.7425V23.7373L1.95551 23.7259V23.7144L1.9503 23.7082V23.7029L1.94405 23.6863V23.6696C1.68658 22.0341 1.23524 20.4893 0.60041 19.0822C0.251212 18.9675 0 18.6413 0 18.2587V17.2059C0 16.7254 0.388799 16.3366 0.869341 16.3366H14.9736C15.4479 16.3366 15.8315 16.7254 15.8315 17.2059V18.2587C15.8294 18.7319 15.447 19.1217 14.9717 19.1217ZM14.5089 15.6433C12.8557 15.6433 11.316 15.1284 10.0528 14.2476C10.1612 14.0526 10.2477 13.8754 10.2758 13.8191C10.6646 12.8351 10.6928 12.0575 10.6365 11.2569C11.1452 11.3998 11.6601 11.503 12.175 11.577C12.7181 12.9383 13.5187 14.2194 14.5777 15.3294C14.6465 15.3982 14.7716 15.5128 14.9092 15.6327C14.7779 15.6431 14.6465 15.6433 14.5089 15.6433ZM9.44701 13.7848C8.1378 12.6694 7.19963 11.1361 6.83899 9.39215C6.89632 9.43802 6.94218 9.47242 6.96512 9.48909C7.86885 10.1406 8.84138 10.644 9.84842 11.0047C9.91722 11.8511 9.94015 12.5714 9.55654 13.5325C9.53778 13.5732 9.49288 13.6701 9.44701 13.7848ZM6.7014 8.34557C6.68993 8.17358 6.67847 7.99637 6.67847 7.82543C6.67847 5.6354 7.58221 3.65591 9.03424 2.23734C9.01131 2.27695 8.99984 2.31239 8.99463 2.33428C8.02834 5.37183 8.60583 6.91021 9.16662 8.39149C9.36676 8.93458 9.57837 9.49016 9.71595 10.1302C8.91541 9.81017 8.14301 9.38694 7.41646 8.86576C7.34767 8.81468 7.0162 8.56239 6.7014 8.34557ZM10.0359 1.40216C11.1221 0.647483 12.4032 0.155466 13.7937 0.0293533C13.7426 0.0918974 13.702 0.144016 13.6853 0.166946C11.3514 3.26186 10.7855 7.23017 11.883 10.748C11.4369 10.6678 10.9907 10.5656 10.5561 10.428C10.4185 9.52951 10.1496 8.81443 9.88687 8.1223C9.32606 6.63587 8.84032 5.35481 9.72635 2.56864C9.767 2.4373 9.86498 2.00257 10.0359 1.40216ZM14.8005 0.000160072C15.9784 0.0460261 17.0938 0.349359 18.0841 0.864297C18.0726 1.1843 18.0674 1.43656 18.0612 1.4991C17.9694 4.079 16.9 5.6801 15.9503 7.09867C15.1092 8.36308 14.3659 9.47215 14.6807 10.8794C14.0345 10.9305 13.383 10.9252 12.7367 10.8627C11.5588 7.49374 12.0508 3.62763 14.3034 0.630644C14.343 0.572271 14.5712 0.286809 14.8005 0.000160072ZM18.8388 1.31044C20.7025 2.55713 22.0076 4.58255 22.2766 6.92148C21.9795 7.2248 21.7272 7.51041 21.6647 7.57296C19.9594 9.35127 17.7578 10.4333 15.4532 10.7877C15.1676 9.66087 15.7795 8.74568 16.5915 7.52706C17.5463 6.10319 18.7305 4.32381 18.8337 1.52723C18.8389 1.49283 18.8388 1.41885 18.8388 1.31044ZM22.3275 7.99101C22.2931 9.51184 21.8303 10.9253 21.0465 12.1146C20.543 12.223 20.051 12.3492 19.9593 12.3773C17.9006 13.0413 16.4078 12.3544 15.7844 11.5142C18.1756 11.1025 20.4511 9.95899 22.2243 8.10575C22.241 8.08803 22.2754 8.04834 22.3275 7.99101ZM20.2918 13.0809C19.1472 14.339 17.5971 15.2251 15.8533 15.5294C15.6417 15.3064 15.3957 15.0541 15.3102 14.9686C14.3314 13.9909 13.5767 12.8693 13.0503 11.6621C13.29 11.6788 13.536 11.685 13.7821 11.685C14.1709 11.685 14.5597 11.6673 14.9485 11.6277C15.4113 12.4908 16.5662 13.4237 18.3404 13.4237C18.8949 13.4237 19.5183 13.332 20.1989 13.1152C20.2167 13.11 20.2459 13.0986 20.2918 13.0809ZM12.9638 22.8385C13.2161 21.5345 13.5934 20.2878 14.0854 19.1213H13.0848L11.0594 21.0372L12.9638 22.8385ZM9.93884 21.0362L7.91351 19.1203H7.6331L5.60777 21.0362L7.77488 23.0845L9.93884 21.0362ZM9.0351 19.1214L10.4986 20.5056L11.958 19.1214H9.0351ZM4.48826 21.0362L2.46293 19.1203H1.46225C1.95426 20.2867 2.33159 21.5334 2.58384 22.8375L4.48826 21.0362ZM5.04907 20.5046L6.50735 19.1203H3.58455L5.04907 20.5046Z" fill="black"/>
</svg>
