<svg xmlns="http://www.w3.org/2000/svg"  viewBox="0 0 30 30" width="120px" height="120px"><path d="M22.07,21.034l-1.42-1.42c-1.83-1.83-2.99-4.19-3.36-6.72h2.04v-2.16l-2.15-1.08h-0.01v-0.58c1.3-0.75,2.16-2.14,2.16-3.74 c0-2.39-1.93-4.32-4.32-4.32s-4.32,1.93-4.32,4.32c0,1.6,0.86,2.99,2.16,3.74v0.58l-2.16,1.08v2.16h2.04 c-0.37,2.53-1.53,4.89-3.36,6.72l-1.42,1.42c-1.01,1.01-1.58,2.38-1.58,3.81v2.09c5.5,1.47,11.25,1.48,17.28,0v-2.09 C23.65,23.414,23.08,22.044,22.07,21.034z M14.14,4.134c-0.83,0.83-1.84,1.17-2.25,0.76c-0.42-0.42-0.08-1.43,0.75-2.26 c0.82-0.82,1.83-1.16,2.25-0.74C15.3,2.304,14.96,3.314,14.14,4.134z"/></svg>