<svg width="22" height="24" viewBox="0 0 22 24" fill="none" xmlns="http://www.w3.org/2000/svg">
<path fill-rule="evenodd" clip-rule="evenodd" d="M0.836893 1.29048H2.09926C2.1986 1.29048 2.28014 1.37155 2.28014 1.47089V13.3575L2.24827 13.3889C1.67613 13.961 1.39592 14.6349 1.33922 15.3405C1.28111 16.065 1.47417 16.8002 1.83217 17.4665C1.94416 17.675 2.07724 17.8817 2.22625 18.0818L2.28014 18.153V23.2503H4.85782V19.9257C5.19427 20.01 5.5368 20.0451 5.87747 20.0222C6.08224 20.0086 6.2842 19.9749 6.481 19.9196V23.2503H9.05869V17.8517L10.6819 16.228V23.2503H11.2414C11.2948 23.2503 11.3388 23.2938 11.3388 23.3473V23.9025C11.3388 23.9564 11.2948 24 11.2414 24H0.0974657C0.0435784 24 0 23.9564 0 23.9025V23.3473C0 23.2938 0.0435784 23.2503 0.0974657 23.2503H0.656488V1.47042C0.656488 1.37155 0.737553 1.29048 0.836893 1.29048ZM14.6991 4.74068C14.871 5.58507 15.6985 6.37745 16.5106 6.55129C16.6235 6.76262 16.8039 6.97536 17.0406 7.212C17.0851 7.25604 17.1076 7.31602 17.1076 7.376C17.1076 7.43223 17.0879 7.48799 17.0495 7.53157L6.57285 18.0077C6.06021 18.5199 5.32969 18.4576 4.6657 18.093C4.38549 17.9393 4.11699 17.7327 3.87989 17.4923C3.64231 17.2514 3.43567 16.9768 3.2801 16.6877C2.89023 15.9614 2.82557 15.1419 3.41364 14.5538L13.7338 4.23367C13.7783 4.18868 13.8383 4.16666 13.8978 4.16666C13.9577 4.16666 14.0173 4.18868 14.0618 4.23367C14.2876 4.45953 14.4943 4.63056 14.6991 4.74068ZM16.4816 12.7315C17.3049 12.7315 18.0513 13.0656 18.5911 13.6058C19.1314 14.1452 19.466 14.8916 19.466 15.7159C19.466 16.5397 19.1314 17.2861 18.5916 17.8259L18.5817 17.8348C18.0419 18.3695 17.2997 18.6998 16.4816 18.6998C16.1564 18.6998 15.8438 18.6478 15.5509 18.5518C15.5383 18.5489 15.5266 18.5447 15.5149 18.5396C15.0844 18.3919 14.6934 18.1476 14.372 17.8255C13.8317 17.2861 13.4971 16.5397 13.4971 15.7159C13.4971 14.8926 13.8312 14.1466 14.3715 13.6063L14.3724 13.6049C14.9127 13.0651 15.6587 12.7315 16.4816 12.7315ZM15.6517 13.1986C15.6489 13.2108 15.6451 13.223 15.64 13.2343L15.5706 13.3875C15.5523 13.4278 15.5187 13.4592 15.4773 13.4749C15.4358 13.4905 15.3898 13.4891 15.3494 13.4709C15.3273 13.461 15.3077 13.4464 15.2918 13.4281C15.2759 13.4098 15.2643 13.3883 15.2576 13.365C15.0181 13.4899 14.7991 13.6506 14.6081 13.8415C14.1283 14.3214 13.8322 14.9835 13.8322 15.7159C13.8322 16.4473 14.1288 17.1095 14.6081 17.5888C14.6288 17.6094 14.6494 17.6296 14.6705 17.6493C14.6831 17.6427 14.6962 17.6375 14.7103 17.6343C14.7998 17.6122 14.8907 17.6671 14.9123 17.7566C14.9183 17.7795 14.9258 17.8039 14.9347 17.8278C14.9418 17.8461 14.9493 17.8648 14.9577 17.8836C15.0467 17.9459 15.1391 18.003 15.2351 18.0541C14.9437 17.3189 14.8584 16.3138 15.005 15.3537C15.1344 14.5107 15.4432 13.6958 15.9497 13.1195C15.848 13.1401 15.7482 13.1668 15.6517 13.1986ZM14.349 16.795C14.349 16.7027 14.424 16.6277 14.5163 16.6277C14.6086 16.6277 14.6841 16.7027 14.6841 16.795C14.6841 16.8391 14.6878 16.8906 14.6939 16.9398C14.7005 16.9904 14.7103 17.041 14.7211 17.0823C14.7445 17.1713 14.6911 17.2631 14.6021 17.2861C14.513 17.3095 14.4216 17.2566 14.3982 17.1676C14.3842 17.1137 14.372 17.0485 14.3631 16.9834C14.3542 16.9145 14.349 16.847 14.349 16.795ZM14.29 15.7937C14.2979 15.7018 14.3795 15.6343 14.4709 15.6428C14.5627 15.6507 14.6302 15.7323 14.6217 15.8237C14.6203 15.8443 14.6217 15.8953 14.6255 15.9539C14.6297 16.0242 14.6372 16.1011 14.6442 16.1531C14.6471 16.1748 14.6457 16.1969 14.6401 16.2181C14.6344 16.2392 14.6247 16.2591 14.6114 16.2765C14.5981 16.2939 14.5814 16.3085 14.5625 16.3195C14.5435 16.3305 14.5226 16.3376 14.5008 16.3405C14.457 16.3464 14.4127 16.3346 14.3776 16.3078C14.3424 16.281 14.3193 16.2414 14.3134 16.1976C14.305 16.1371 14.297 16.0514 14.2919 15.9745C14.2881 15.9028 14.2862 15.8349 14.29 15.7937ZM14.4605 14.7393C14.4854 14.6508 14.5777 14.5988 14.6667 14.6236C14.7553 14.6484 14.8073 14.7408 14.782 14.8298C14.7754 14.8542 14.7651 14.9019 14.7553 14.9554L14.722 15.1498C14.7084 15.2412 14.6236 15.3045 14.5322 15.2913C14.4409 15.2778 14.3776 15.1929 14.3907 15.1016L14.4268 14.893C14.439 14.8303 14.4516 14.7717 14.4605 14.7393ZM14.8368 13.8012C14.8552 13.7609 14.8887 13.7295 14.9302 13.7139C14.9716 13.6982 15.0176 13.6997 15.058 13.7178C15.0984 13.7361 15.1298 13.7697 15.1454 13.8112C15.1611 13.8526 15.1596 13.8986 15.1414 13.939L15.0144 14.2192C14.9961 14.2596 14.9625 14.291 14.9211 14.3066C14.8796 14.3222 14.8336 14.3208 14.7932 14.3026C14.7094 14.2647 14.6719 14.1658 14.7094 14.0819L14.8368 13.8012ZM16.0879 18.3362C16.1006 18.2673 16.1559 18.2111 16.2285 18.2013C16.2724 18.195 16.317 18.2065 16.3525 18.2331C16.388 18.2597 16.4115 18.2993 16.4178 18.3432L16.422 18.3643L16.4816 18.3653C17.2093 18.3653 17.8686 18.0719 18.347 17.5977L18.355 17.5888C18.8343 17.1095 19.1309 16.4473 19.1309 15.7159C19.1309 14.9844 18.8343 14.3218 18.355 13.842C18.0096 13.4958 17.5748 13.2523 17.0991 13.1387L17.0752 13.1799C17.0643 13.1989 17.0498 13.2156 17.0324 13.2289C17.0151 13.2423 16.9953 13.2521 16.9741 13.2578C16.953 13.2635 16.9309 13.265 16.9092 13.2622C16.8874 13.2593 16.8665 13.2522 16.8475 13.2413C16.8198 13.2254 16.7973 13.2019 16.7826 13.1736C16.7678 13.1452 16.7616 13.1133 16.7646 13.0815C16.6723 13.0717 16.579 13.066 16.4839 13.066C15.8536 13.5754 15.4797 14.4671 15.3363 15.4038C15.1742 16.4628 15.3063 17.5696 15.6953 18.2467C15.8223 18.2861 15.9535 18.3161 16.0879 18.3362ZM15.6671 17.5143C15.6536 17.4229 15.7164 17.3372 15.8077 17.3236C15.8516 17.3171 15.8963 17.3282 15.9321 17.3545C15.9678 17.3809 15.9917 17.4203 15.9984 17.4642C16.0036 17.4998 16.0139 17.5401 16.0266 17.5809C16.042 17.6291 16.0603 17.676 16.079 17.7167C16.1175 17.8001 16.0809 17.8995 15.997 17.9384C15.9136 17.9768 15.8143 17.9403 15.7759 17.8564C15.7501 17.8011 15.7262 17.7402 15.7074 17.6816C15.6896 17.6254 15.6756 17.5677 15.6671 17.5143ZM15.5308 16.4544C15.5351 16.4104 15.5566 16.3698 15.5907 16.3416C15.6247 16.3135 15.6686 16.2999 15.7126 16.304C15.8044 16.3124 15.8715 16.3944 15.863 16.4858C15.8593 16.5265 15.8579 16.5785 15.8597 16.6315C15.8611 16.6816 15.8658 16.7327 15.8729 16.7749C15.8879 16.8658 15.8265 16.952 15.7356 16.967C15.6447 16.9825 15.5584 16.9206 15.5434 16.8297C15.5341 16.7758 15.5284 16.7093 15.5261 16.6432C15.5242 16.5762 15.5256 16.5092 15.5308 16.4544ZM15.5683 15.4511C15.5851 15.3602 15.6728 15.3012 15.7637 15.3181C15.8541 15.3354 15.9136 15.423 15.8963 15.5139C15.8921 15.5364 15.8883 15.5866 15.8864 15.6428C15.8841 15.7131 15.8841 15.7904 15.886 15.8433C15.8893 15.9352 15.8171 16.013 15.7253 16.0158C15.7034 16.0166 15.6816 16.013 15.661 16.0054C15.6405 15.9977 15.6217 15.9861 15.6057 15.9712C15.5897 15.9562 15.5768 15.9383 15.5677 15.9184C15.5586 15.8984 15.5536 15.8769 15.5528 15.8551C15.5505 15.7955 15.5505 15.7093 15.5533 15.6315C15.5556 15.558 15.5608 15.4891 15.5683 15.4511ZM15.8401 14.4184C15.8562 14.3771 15.8881 14.3439 15.9286 14.3261C15.9692 14.3082 16.0152 14.3072 16.0565 14.3232C16.1423 14.357 16.1849 14.454 16.1517 14.5397C16.1423 14.5636 16.1278 14.61 16.1123 14.6616L16.0603 14.8527C16.0383 14.9422 15.9474 14.9966 15.8579 14.9746C15.8148 14.9638 15.7778 14.9364 15.755 14.8983C15.7321 14.8603 15.7253 14.8147 15.736 14.7717L15.7923 14.5674C15.8101 14.506 15.8279 14.4493 15.8401 14.4184ZM16.3058 13.5215C16.3167 13.5025 16.3313 13.4858 16.3486 13.4724C16.366 13.459 16.3858 13.4492 16.407 13.4435C16.4281 13.4378 16.4502 13.4363 16.4719 13.4392C16.4936 13.442 16.5146 13.4492 16.5336 13.4601C16.5525 13.471 16.5692 13.4855 16.5825 13.5028C16.5959 13.5201 16.6057 13.5399 16.6114 13.561C16.6171 13.5821 16.6186 13.6041 16.6157 13.6258C16.6129 13.6475 16.6059 13.6684 16.5949 13.6874L16.4413 13.9545C16.4191 13.9928 16.3828 14.0207 16.3401 14.0322C16.2974 14.0437 16.2519 14.0379 16.2135 14.0159C16.1945 14.0049 16.1779 13.9904 16.1645 13.9731C16.1511 13.9557 16.1413 13.9359 16.1356 13.9147C16.1299 13.8936 16.1284 13.8715 16.1312 13.8498C16.1341 13.828 16.1412 13.8071 16.1521 13.7881L16.3058 13.5215ZM13.5515 9.18802C13.5974 9.14233 13.6596 9.11668 13.7244 9.11668C13.7892 9.11668 13.8514 9.14233 13.8973 9.18802C13.9929 9.28361 13.9929 9.43871 13.8973 9.53384L6.83619 16.5949C6.7406 16.6905 6.5855 16.6905 6.49037 16.5949C6.39478 16.4998 6.39478 16.3447 6.49037 16.2491L13.5515 9.18802ZM19.9388 0.0951228L21.1786 1.335C21.2394 1.39579 21.2736 1.47818 21.2738 1.56414C21.2738 1.63396 21.2508 1.70471 21.204 1.76422L21.1791 1.79328L19.9828 2.98957C19.9527 3.0198 19.9169 3.04376 19.8775 3.06009C19.8381 3.07641 19.7959 3.08478 19.7532 3.0847C19.7026 3.0847 19.6511 3.07205 19.6042 3.04768C19.3905 3.25714 19.1473 3.48862 18.8994 3.72525C18.2603 4.33395 17.5846 4.97778 17.0963 5.56023C16.8986 5.79593 16.8335 5.98243 16.8752 6.15721C16.9234 6.35917 17.1043 6.58456 17.3859 6.86618C17.5265 7.00769 17.5968 7.19232 17.5968 7.376C17.5968 7.55313 17.5316 7.73072 17.4014 7.86942L6.91866 18.3535C6.22469 19.0471 5.27674 18.9852 4.43094 18.5208C4.10996 18.3446 3.80304 18.1085 3.5322 17.8344C3.26276 17.5607 3.028 17.2482 2.8504 16.9187C2.36448 16.0139 2.29888 14.9769 3.06783 14.208L13.3879 3.88785C13.5285 3.74728 13.7136 3.67746 13.8978 3.67746C14.0824 3.67746 14.2675 3.74728 14.4076 3.88785C14.6827 4.16244 14.9076 4.33488 15.1114 4.38221C15.2899 4.42298 15.4769 4.36112 15.7046 4.17791C16.2777 3.71776 16.9567 3.00269 17.5813 2.34433C17.8086 2.10442 18.0298 1.87153 18.2261 1.67004C18.2017 1.62318 18.1891 1.57164 18.1891 1.52056C18.1891 1.4498 18.2125 1.37905 18.2594 1.32L18.2837 1.29142L19.4805 0.0951228C19.5414 0.0345016 19.6237 0.000323876 19.7096 0C19.7804 0 19.8511 0.0238978 19.9097 0.0702878L19.9388 0.0951228ZM2.51724 0.437659H4.53356C4.6479 0.437659 4.74161 0.531376 4.74161 0.64571V0.653208H5.44824C5.48338 0.653208 5.51384 0.682729 5.51384 0.719278V1.03276C5.51384 1.06884 5.48432 1.09836 5.44824 1.09836H4.74161V1.10633C4.74161 1.22066 4.6479 1.31438 4.53356 1.31438H2.51724C2.40291 1.31438 2.30919 1.22066 2.30919 1.10633V1.09836H1.56976C1.53368 1.09836 1.50369 1.06884 1.50369 1.03276V0.719278C1.50369 0.682729 1.53321 0.653208 1.56976 0.653208H2.30919V0.64571C2.30919 0.531376 2.40291 0.437659 2.51724 0.437659ZM5.81186 0.653208H6.51802V0.64571C6.51802 0.531376 6.61174 0.437659 6.72607 0.437659H8.7424C8.8572 0.437659 8.95045 0.531376 8.95045 0.64571V0.653208H9.69034C9.72549 0.653208 9.75595 0.682729 9.75595 0.719278V1.03276C9.75595 1.06884 9.72642 1.09836 9.69034 1.09836H8.95045V1.10633C8.95032 1.16147 8.92836 1.21432 8.88937 1.25331C8.85038 1.2923 8.79754 1.31426 8.7424 1.31438H6.72607C6.61174 1.31438 6.51802 1.22066 6.51802 1.10633V1.09836H5.81186C5.77578 1.09836 5.74579 1.06884 5.74579 1.03276V0.719278C5.74579 0.682729 5.77531 0.653208 5.81186 0.653208ZM9.2391 1.29048H10.5015C10.6008 1.29048 10.6819 1.37155 10.6819 1.47089V5.01011C10.5776 5.07797 10.4807 5.15649 10.3928 5.24441L9.05869 6.57847V1.47042C9.05869 1.37155 9.13976 1.29048 9.2391 1.29048ZM5.03776 1.29048H6.30013C6.34802 1.29048 6.39395 1.30948 6.42786 1.34329C6.46177 1.37711 6.48088 1.423 6.481 1.47089V9.15616L4.85782 10.7798V1.47042C4.85782 1.37155 4.93889 1.29048 5.03776 1.29048Z" fill="black"/>
</svg>
