<svg width="25" height="24" viewBox="0 0 25 24" fill="none" xmlns="http://www.w3.org/2000/svg">
<path d="M23.8093 19.5849H23.7341V1.81233C23.7341 0.793993 22.9042 0.00119643 21.923 0.00119643H2.75426C1.73593 -0.0358878 0.906056 0.793993 0.906056 1.81233V19.5849H0.792796C0.33977 19.5849 0 19.9247 0 20.3777C0 20.8308 0.33977 21.1705 0.792796 21.1705H3.09406C3.54708 21.1705 3.88685 20.7937 3.88685 20.3777C3.88685 19.9628 3.54708 19.5849 3.09406 19.5849V17.7738C3.92395 17.6986 4.75385 17.6606 5.62183 17.5854V19.3584C5.62183 19.5469 5.77317 19.7353 5.9987 19.7353C6.22522 19.7353 6.37557 19.5469 6.37557 19.3584V17.5473C6.60209 17.5473 6.79052 17.5092 7.01704 17.5092C6.97895 17.7738 6.90378 18.0374 6.90378 18.302C6.79052 21.6607 9.39445 24 12.262 24C15.318 24 17.8086 21.4342 17.6203 18.302C17.6203 18.0374 17.5822 17.7738 17.507 17.5092C17.8087 17.5092 18.1485 17.5473 18.4502 17.5473V19.4336C18.4502 19.622 18.6015 19.8105 18.8271 19.8105C19.0536 19.8105 19.2039 19.6221 19.2039 19.4336V17.5844C19.9967 17.6225 20.7515 17.6977 21.5052 17.7358V19.5469H21.43C20.977 19.5469 20.6372 19.8867 20.6372 20.3397C20.6372 20.7927 20.977 21.1325 21.43 21.1325H23.7694C24.2224 21.1325 24.5622 20.7556 24.5622 20.3397C24.5642 19.9247 24.2242 19.5849 23.8093 19.5849ZM3.09413 17.0191V15.246C3.92403 15.1709 4.71682 15.1328 5.54672 15.0947C5.58481 15.6981 5.58481 16.2644 5.58481 16.8678C4.75491 16.9058 3.924 16.9439 3.09413 17.0191ZM5.16985 4.98269C5.20794 5.58608 5.20794 6.15236 5.24502 6.75575C4.52838 6.79383 3.81076 6.83092 3.09412 6.90709V5.13404C3.77366 5.05786 4.49031 5.01978 5.16985 4.98269ZM3.09413 4.37831V2.90694C3.09413 2.492 3.4339 2.15223 3.84885 2.15223H5.05659C5.09468 2.83177 5.09468 3.54841 5.13176 4.22795C4.45222 4.26503 3.77367 4.30313 3.09413 4.37831ZM5.28311 7.51044C5.32119 8.11383 5.32119 8.68011 5.35828 9.28349C4.60356 9.32158 3.84884 9.35867 3.09412 9.43484V7.66178C3.81076 7.58561 4.52839 7.54852 5.28311 7.51044ZM5.39636 10.0382C5.43445 10.6416 5.43445 11.2079 5.47154 11.8113C4.67874 11.8494 3.88692 11.9245 3.1322 11.9626V10.1896C3.84884 10.1144 4.60357 10.0763 5.39636 10.0382ZM5.47154 12.567C5.50962 13.1704 5.50962 13.7367 5.54671 14.34C4.71681 14.3781 3.92401 14.4533 3.09411 14.4914V12.7183C3.88691 12.6422 4.67874 12.6041 5.47154 12.567ZM5.81131 2.1522H7.81087C7.81087 2.79366 7.84896 3.4732 7.84896 4.11467C7.16942 4.15275 6.52796 4.15275 5.84939 4.18984C5.84839 3.5103 5.81131 2.83174 5.81131 2.1522ZM5.99974 6.71762C5.96165 6.11423 5.96165 5.54795 5.92457 4.94456C6.56603 4.90648 7.24557 4.86939 7.88703 4.86939C7.92512 5.47278 7.92512 6.03906 7.92512 6.64245C7.28265 6.64245 6.6412 6.68053 5.99974 6.71762ZM6.03782 7.47234C6.67929 7.43425 7.32075 7.39716 7.96221 7.39716C8.0003 8.00055 8.0003 8.56683 8.0003 9.17022C7.35884 9.20831 6.71737 9.20831 6.07591 9.24539C6.07491 8.64201 6.03782 8.03865 6.03782 7.47234ZM6.113 10.0011C6.75446 9.96302 7.39592 9.92594 7.99931 9.92594C8.03739 10.5293 8.03739 11.0956 8.03739 11.699C7.39593 11.7371 6.79255 11.7371 6.15108 11.7742C6.18817 11.1708 6.15108 10.5664 6.113 10.0011ZM6.22626 12.5289C6.86772 12.4908 7.4711 12.4537 8.11257 12.4537C8.11257 13.0571 8.15065 13.6234 8.15065 14.2268C7.54727 14.2268 6.90581 14.2649 6.30145 14.3019C6.26336 13.6986 6.26334 13.0952 6.22626 12.5289ZM6.33951 16.7926C6.33951 16.1892 6.30143 15.6229 6.30143 15.0195C6.90481 14.9814 7.54628 14.9443 8.15064 14.9443V15.1708C7.88605 15.4725 7.4711 16.0769 7.24458 16.7184C6.94289 16.7554 6.64118 16.7926 6.33951 16.7926ZM10.2255 20.8679H8.6028C8.48954 20.8679 8.37628 20.9431 8.30111 21.0563C7.92423 20.4529 7.69772 19.7353 7.62157 19.0187C7.88616 19.1319 8.07459 18.8673 8.14977 18.8673C8.22495 18.8293 9.20618 18.1126 9.28136 18.0745L10.5262 18.4895C10.5643 18.6028 10.9792 19.9238 10.9792 19.8857L10.2255 20.8679ZM16.0366 4.83133C16.0366 5.43472 15.9985 6.001 15.9985 6.60439C15.3571 6.5663 14.7156 6.5663 14.0742 6.5663V4.79325C14.7156 4.79325 15.3952 4.83133 16.0366 4.83133ZM14.0742 4.03854V2.15223H16.0747C16.0747 2.5291 16.0747 3.28382 16.0366 4.07661C15.3952 4.07661 14.7156 4.03854 14.0742 4.03854ZM15.9986 7.359C15.9986 7.96239 15.9605 8.52867 15.9605 9.13206C15.319 9.13206 14.7156 9.09397 14.0742 9.09397V7.32092C14.7156 7.32192 15.3571 7.359 15.9986 7.359ZM15.9615 9.88778C15.9615 10.4912 15.9615 11.0574 15.9234 11.6608C15.32 11.6608 14.6785 11.6237 14.0742 11.6237V9.85069C14.7156 9.84969 15.32 9.88778 15.9615 9.88778ZM15.9234 12.4156C15.9234 13.0189 15.9234 13.5852 15.8853 14.1886H15.2058C14.866 13.9621 14.451 13.7356 14.0361 13.6223L14.0371 12.3775C14.6786 12.3775 15.32 12.3775 15.9234 12.4156ZM15.773 15.6229C15.6598 15.661 15.5465 15.7361 15.5465 15.8494C15.5465 15.8875 15.0183 17.5092 15.0564 17.3969C15.0183 17.3969 13.7735 17.8118 13.8115 17.8118C13.7735 17.7738 12.6038 16.9439 12.6419 16.9439V15.6229C14.0761 14.6045 14.1132 14.6045 14.0761 14.378C14.4901 14.5284 15.2438 15.0195 15.773 15.6229ZM13.3194 7.32182V9.09488H11.4331C11.4331 8.49149 11.4331 7.92521 11.395 7.32182H13.3194ZM11.3951 6.5671C11.3951 5.96372 11.357 5.39744 11.357 4.79405H13.3194V6.5671H11.3951ZM13.3194 9.8496V11.6237H11.4702C11.4702 11.0574 11.4702 10.454 11.4321 9.8506C12.0746 9.8496 12.678 9.8496 13.3194 9.8496ZM13.3194 12.3774V13.3957C12.7161 13.2824 12.0746 13.2444 11.4702 13.3576V12.3764C12.0746 12.3403 12.7161 12.3403 13.3194 12.3774ZM13.3194 4.03836H11.357C11.357 3.62341 11.357 2.98194 11.3189 2.15205H13.3185L13.3194 4.03836ZM11.9243 15.6609V16.9819C11.811 17.0571 10.7165 17.8499 10.7546 17.8499C10.7165 17.8499 9.43359 17.4349 9.50975 17.4349C9.47166 17.3597 9.01962 15.8122 8.90636 15.737C8.86828 15.699 8.7931 15.6619 8.75502 15.6619C9.01961 15.285 9.73625 14.7187 10.491 14.417C10.4529 14.6435 10.7175 14.7568 10.7556 14.7939C12.6409 16.151 11.6216 15.4344 11.9243 15.6609ZM10.49 13.5852C10.0751 13.7365 9.66011 13.9249 9.28226 14.1886H8.86731C8.86731 13.5852 8.82922 13.0189 8.82922 12.4155C9.43261 12.3774 10.0741 12.3774 10.6784 12.3774V13.509C10.6413 13.51 10.5652 13.5481 10.49 13.5852ZM8.82921 11.6608C8.82921 11.0574 8.79112 10.4911 8.79112 9.88773C9.43258 9.84964 10.074 9.84964 10.6774 9.84964C10.6774 10.453 10.6774 11.0193 10.7155 11.6227C10.0751 11.6237 9.47067 11.6237 8.82921 11.6608ZM8.75404 9.13301C8.75404 8.52962 8.71595 7.96334 8.71595 7.35995C9.35741 7.32187 9.99887 7.32187 10.6403 7.32187C10.6403 7.92525 10.6403 8.49153 10.6784 9.09492C10.037 9.09492 9.3955 9.09492 8.75404 9.13301ZM8.67886 6.60423C8.67886 6.00085 8.64078 5.43456 8.64078 4.83118C9.28224 4.83118 9.96178 4.79309 10.6032 4.79309C10.6032 5.39648 10.6413 5.96276 10.6413 6.56615C9.99987 6.56715 9.3584 6.60423 8.67886 6.60423ZM8.60369 4.07646C8.56561 3.435 8.56561 2.79353 8.56561 2.15207H10.5652C10.6033 3.39692 10.6033 3.92513 10.6033 4.03838C9.92372 4.03838 9.28226 4.07646 8.60369 4.07646ZM13.3195 23.132C12.6399 23.2833 11.8852 23.2833 11.1686 23.132C11.2437 23.0568 11.2818 22.9055 11.2437 22.7922L10.7536 21.2447L11.5083 20.1883H12.9426L13.6973 21.2447L13.2072 22.7922C13.2443 22.9436 13.2443 23.0568 13.3195 23.132ZM16.1881 21.0563C16.1129 20.943 16.0367 20.9049 15.8864 20.9049H14.2637L13.4709 19.8485C13.4709 19.8104 13.9239 18.4143 13.9239 18.4523C13.962 18.4523 15.2449 18.0374 15.1688 18.0374C15.4334 18.2258 16.2252 18.7921 16.4898 18.9806C16.603 19.0557 16.7163 19.0557 16.8296 19.0186C16.8296 19.7363 16.603 20.4148 16.1881 21.0563ZM18.4512 16.8306C18.0744 16.7925 17.6584 16.7925 17.2816 16.7925C17.1683 16.4527 16.9799 16.113 16.7914 15.7742C16.7534 15.699 16.7163 15.6228 16.6401 15.5857V14.9823C17.2435 15.0204 17.8479 15.0204 18.4893 15.0575C18.4893 15.6228 18.4893 16.2262 18.4512 16.8306ZM18.4893 14.3018C17.8859 14.2637 17.2445 14.2266 16.6401 14.2266C16.6401 13.6233 16.6401 13.057 16.6782 12.4536C17.2816 12.4536 17.9231 12.4917 18.5274 12.5288C18.5274 13.095 18.5274 13.6984 18.4893 14.3018ZM18.5645 11.774C17.923 11.7359 17.3197 11.6989 16.7153 11.6989C16.7153 11.0955 16.7153 10.5292 16.7534 9.92581C17.3948 9.9639 17.9982 9.9639 18.6397 10.001C18.6026 10.6044 18.5645 11.1707 18.5645 11.774ZM18.6407 9.24626C17.9992 9.20818 17.3578 9.20818 16.7544 9.17109C16.7544 8.56771 16.7925 8.00142 16.7925 7.39804C17.4339 7.43613 18.0754 7.43613 18.7168 7.47321C18.6407 8.07659 18.6407 8.64188 18.6407 9.24626ZM18.6778 6.71749C18.0363 6.6794 17.3948 6.64232 16.7534 6.64232C16.7534 6.03893 16.7915 5.47265 16.7915 4.86926C17.4329 4.90735 18.1125 4.90735 18.7539 4.94444C18.7158 5.54782 18.7159 6.1141 18.6778 6.71749ZM18.7539 4.18972C18.1125 4.15163 17.4329 4.11454 16.7915 4.11454C16.8296 3.20849 16.8296 2.19016 16.8296 2.15208H18.8291C18.8291 2.83162 18.791 3.51018 18.7539 4.18972ZM21.5464 17.019C20.7916 16.9438 19.9988 16.9057 19.2451 16.8676C19.2451 16.2642 19.2451 15.698 19.2832 15.0946C20.0379 15.1327 20.7926 15.2078 21.5473 15.2459L21.5464 17.019ZM21.5464 14.4912C20.7916 14.416 20.0369 14.3779 19.2822 14.3399C19.2822 13.7365 19.3203 13.1702 19.3203 12.5668C20.075 12.6049 20.7916 12.642 21.5464 12.7181L21.5464 14.4912ZM21.5464 11.9624C20.8297 11.9243 20.075 11.8492 19.3203 11.8111C19.3203 11.2077 19.3584 10.6414 19.3584 10.038C20.075 10.0761 20.7926 10.1132 21.5473 10.1894L21.5464 11.9624ZM21.5464 9.43465C20.8297 9.39656 20.1121 9.32139 19.3955 9.2833C19.3955 8.67992 19.4335 8.11364 19.4335 7.51025C20.1502 7.54834 20.8297 7.58542 21.5464 7.66159L21.5464 9.43465ZM21.5464 6.90687C20.8668 6.86879 20.1502 6.79362 19.4706 6.75553C19.4706 6.15215 19.5087 5.58586 19.5087 4.98248C20.1883 5.02056 20.8668 5.05765 21.5464 5.13382L21.5464 6.90687ZM21.5464 4.3781C20.8668 4.34001 20.2254 4.30293 19.5468 4.26484C19.5849 3.5853 19.5849 2.86866 19.622 2.18912H20.8297C21.2447 2.18912 21.5844 2.52889 21.5844 2.94384L21.5834 4.3781L21.5464 4.3781ZM22.9415 19.5849H22.262V7.69882V5.17105V2.86979C22.262 2.03989 21.5825 1.36035 20.7526 1.36035H3.80999C2.98009 1.36035 2.30055 2.03989 2.30055 2.86979V19.5478L1.66109 19.5468V1.7742C1.66109 1.17081 2.15122 0.717786 2.7175 0.717786H21.8482C22.4516 0.717786 22.9046 1.20791 22.9046 1.7742C22.9417 11.8493 22.9415 9.20831 22.9415 19.5849Z" fill="black"/>
</svg>
