<svg width="24" height="24" viewBox="0 0 24 24" fill="none" xmlns="http://www.w3.org/2000/svg">
<path d="M20.8505 17.7052C19.1123 17.7052 17.7031 19.1144 17.7031 20.8526C17.7031 22.5908 19.1123 24 20.8505 24C22.5888 24 23.9979 22.5908 23.9979 20.8526C23.9979 19.1144 22.5888 17.7052 20.8505 17.7052ZM19.2767 22.0322C19.0596 22.0322 18.8833 21.8562 18.8833 21.6388C18.8833 21.4215 19.0596 21.2454 19.2767 21.2454C19.4941 21.2454 19.6701 21.4215 19.6701 21.6388C19.6701 21.8562 19.4941 22.0322 19.2767 22.0322ZM19.2767 20.2619C19.0596 20.2619 18.8833 20.0859 18.8833 19.8685C18.8833 19.6512 19.0596 19.4751 19.2767 19.4751C19.4941 19.4751 19.6701 19.6512 19.6701 19.8685C19.6701 20.0859 19.4941 20.2619 19.2767 20.2619ZM20.8503 23.2124C20.6332 23.2124 20.4569 23.0364 20.4569 22.819C20.4569 22.6017 20.6332 22.4256 20.8503 22.4256C21.0677 22.4256 21.2437 22.6017 21.2437 22.819C21.2437 23.0364 21.0677 23.2124 20.8503 23.2124ZM20.8503 21.2454C20.6332 21.2454 20.4569 21.0694 20.4569 20.852C20.4569 20.6347 20.6332 20.4586 20.8503 20.4586C21.0677 20.4586 21.2437 20.6347 21.2437 20.852C21.2437 21.0694 21.0677 21.2454 20.8503 21.2454ZM20.8503 19.2784C20.6332 19.2784 20.4569 19.1024 20.4569 18.885C20.4569 18.6677 20.6332 18.4916 20.8503 18.4916C21.0677 18.4916 21.2437 18.6677 21.2437 18.885C21.2437 19.1024 21.0677 19.2784 20.8503 19.2784ZM22.4239 22.0322C22.2068 22.0322 22.0305 21.8562 22.0305 21.6388C22.0305 21.4215 22.2068 21.2454 22.4239 21.2454C22.6413 21.2454 22.8173 21.4215 22.8173 21.6388C22.8173 21.8562 22.6413 22.0322 22.4239 22.0322ZM22.4239 20.2619C22.2068 20.2619 22.0305 20.0859 22.0305 19.8685C22.0305 19.6512 22.2068 19.4751 22.4239 19.4751C22.6413 19.4751 22.8173 19.6512 22.8173 19.8685C22.8173 20.0859 22.6413 20.2619 22.4239 20.2619Z" fill="black"/>
<path d="M6.34204 17.6353L5.50409 16.7974L0.480957 21.6413L2.36161 23.522L7.20654 18.5008L6.35207 17.6463C6.34873 17.6428 6.34519 17.639 6.34204 17.6353Z" fill="black"/>
<path d="M6.30473e-06 22.4197C-0.000977197 22.6274 0.113109 22.8474 0.339314 23.0734L0.929416 23.6635C1.22663 23.9607 1.57145 24.1721 2.07382 23.7905L0.207722 21.9244C0.0719986 22.093 0.000793106 22.2592 6.30473e-06 22.4197Z" fill="black"/>
<path d="M22.2862 7.22343C22.2852 7.22245 22.2843 7.22146 22.2835 7.22068L19.0072 3.87638C19.0051 3.87402 19.0029 3.87185 19.0007 3.8693L16.7794 1.71661C16.182 1.10821 15.4824 0.788574 14.7526 0.788574C14.0248 0.790738 13.3063 1.11883 12.7301 1.71228L7.02365 7.41875C5.6973 8.67351 5.94711 10.8632 6.85389 12.2883C7.2471 12.9067 7.71741 14.1872 6.54999 15.9119L8.08484 17.4467C8.7847 16.9524 9.47001 16.7213 10.2285 16.7213C10.8404 16.7213 11.4819 17.0942 11.865 17.3173L11.9008 17.3378C13.6011 18.3246 15.6155 17.9277 16.5815 16.9745L22.2848 11.2711C22.8893 10.6838 23.2087 9.98432 23.2107 9.2459C23.2129 8.51851 22.893 7.81904 22.2862 7.22343Z" fill="black"/>
<path d="M23.9981 9.26282C24.0009 8.27971 23.6026 7.34597 22.8769 6.63352C22.8763 6.63313 22.876 6.63254 22.8756 6.63215L20.1214 3.87775C20.1178 3.87421 20.1145 3.87067 20.1113 3.86693L17.367 1.12257C16.6557 0.397925 15.7255 0 14.7461 0C14.7426 0 14.7396 0 14.7361 0C13.7607 0.00275381 12.8385 0.400679 12.1397 1.12041L6.43338 6.82688C5.25101 7.96774 4.77755 10.5298 6.06948 12.6842C6.60922 13.5843 6.47311 14.5847 5.66447 15.6575C5.5557 15.8017 5.39617 16.1812 5.63044 16.3692C5.63595 16.3737 5.64146 16.3787 5.64638 16.3836L6.63027 17.3675C6.63381 17.371 6.63716 17.3745 6.6403 17.3783L7.61417 18.3523C7.61554 18.3537 7.61672 18.3553 7.6181 18.3567L7.6183 18.3569C7.62184 18.3606 7.62518 18.3641 7.62853 18.3683C7.81638 18.6025 8.19601 18.443 8.34019 18.3342C8.98419 17.849 9.60242 17.6059 10.1882 17.6059C10.578 17.6059 10.9539 17.7137 11.3137 17.9294C13.4686 19.221 16.0304 18.7473 17.1687 17.5681L22.8756 11.8614C23.5976 11.1604 23.9956 10.2383 23.9981 9.26282ZM16.8585 17.2538C16.1211 17.9818 15.1022 18.2949 14.0907 18.2949C13.2306 18.2949 12.3755 18.0685 11.7032 17.6782L11.6672 17.6574C11.3182 17.4544 10.7342 17.1147 10.2283 17.1147C9.7761 17.1147 9.07191 17.1922 8.18303 17.862C8.10513 17.9208 7.99478 17.9135 7.92554 17.8439L6.15524 16.0736C6.08699 16.0053 6.07833 15.8979 6.13459 15.8198C7.22981 14.2942 6.94971 13.1722 6.52189 12.4995C5.53072 10.9415 5.27363 8.53247 6.74928 7.13668L12.4497 1.43631C13.0984 0.768115 13.9166 0.397531 14.7518 0.395171C15.5902 0.395171 16.3868 0.755526 17.0566 1.43768L19.285 3.59726C19.2895 3.60178 19.2942 3.6067 19.2984 3.61162L22.5628 6.94392C23.2463 7.61525 23.6063 8.41169 23.6039 9.24728C23.6018 10.0817 23.2312 10.9 22.5608 11.5514L16.8585 17.2538Z" fill="black"/>
</svg>
