<svg width="21" height="24" viewBox="0 0 21 24" fill="none" xmlns="http://www.w3.org/2000/svg">
<path fill-rule="evenodd" clip-rule="evenodd" d="M14.2033 17.2285C15.2873 16.4181 16.258 15.3327 17.0419 13.9749C19.915 8.99852 18.3422 3.67996 14.067 1.21164C9.79172 -1.25667 4.43297 0.0599415 1.55985 5.03632C0.775903 6.39416 0.321287 7.77748 0.1615 9.12143L7.02641 13.0849L14.2033 17.2285ZM12.5558 18.2125L6.18842 14.5363L0.132993 11.0402C0.389985 13.854 1.96899 16.3311 4.51237 17.7996C7.05574 19.268 9.99053 19.3969 12.5558 18.2125ZM2.50547 18.4744L0.104695 21.8235C-0.0876924 22.0919 -0.00655913 22.4677 0.279418 22.6328L2.51748 23.925C2.80764 24.0925 3.17898 23.9687 3.31058 23.6606L4.92813 19.8733C4.50321 19.6952 4.08416 19.4877 3.67322 19.2505C3.26194 19.013 2.8724 18.7536 2.50547 18.4744ZM17.7626 23.8406C19.3053 23.8406 20.5559 22.59 20.5559 21.0473C20.5559 19.5046 19.3053 18.254 17.7626 18.254C16.2199 18.254 14.9693 19.5046 14.9693 21.0473C14.9693 22.59 16.2199 23.8406 17.7626 23.8406Z" fill="black"/>
</svg>
