<svg width="24" height="24" viewBox="0 0 24 24" fill="none" xmlns="http://www.w3.org/2000/svg">
<path d="M6.95221 12.9908L5.88428 15.8594L8.14002 18.1151L11.0116 17.0462C9.21875 16.2131 7.7871 14.7866 6.95221 12.9908Z" fill="black"/>
<path d="M0.412896 21.5887C-0.137632 22.1392 -0.137632 23.0357 0.412896 23.5872C0.963424 24.1377 1.85988 24.1377 2.41138 23.5872L7.29205 18.7065L5.29356 16.708L0.412896 21.5887Z" fill="black"/>
<path d="M20.7388 18.4152C19.5578 18.6071 18.6155 19.5338 18.4207 20.7362C19.6084 20.5442 20.5458 19.6059 20.7388 18.4152Z" fill="black"/>
<path d="M23.9428 20.6193C23.7148 19.5124 22.8485 18.6627 21.763 18.4376C21.5496 20.1682 20.1826 21.546 18.4414 21.7602C18.6694 22.8672 19.5347 23.7178 20.6211 23.9419C20.8355 22.2124 22.2036 20.8336 23.9428 20.6193Z" fill="black"/>
<path d="M21.646 23.9643C22.827 23.7724 23.7692 22.8457 23.9651 21.6433C22.7734 21.8362 21.838 22.7756 21.646 23.9643Z" fill="black"/>
<path d="M21.8204 2.1787C18.7014 -0.940372 13.3637 -0.679202 9.92311 2.76138C6.44258 6.24191 6.19613 11.7045 9.49436 14.8109C12.589 17.7244 17.7106 17.4857 21.1161 14.198C22.7871 12.5854 23.8834 10.3765 23.9934 7.98329C24.0977 5.74509 23.3249 3.68336 21.8204 2.1787ZM20.4046 13.2421C17.3245 16.3223 12.8102 16.3398 10.3322 14.008C7.72279 11.5515 7.46761 6.88408 10.7571 3.59463C13.6813 0.670377 18.2834 0.308929 20.9874 3.01195C23.6542 5.67978 23.3775 10.2702 20.4046 13.2421Z" fill="black"/>
<path d="M11.4069 4.24433C8.88897 6.76224 8.54698 10.7269 10.909 13.0889C13.2134 15.3934 17.182 15.1634 19.7536 12.591C22.3007 10.0439 22.5763 6.07125 20.2515 3.74541C17.9461 1.44192 13.9774 1.67386 11.4069 4.24433ZM20.2261 5.37462L19.0626 6.53806L17.4607 4.93614L18.6241 3.7727C19.2867 4.15173 19.8402 4.69934 20.2261 5.37462ZM15.1386 7.25716L16.7415 5.65427L18.3444 7.25716L16.7415 8.86006L15.1386 7.25716ZM16.0224 9.57916L14.4195 11.1821L12.8166 9.57916L14.4195 7.97627L16.0224 9.57916ZM17.6077 3.34974L16.7405 4.21696L15.7252 3.20164C16.378 3.13246 17.0143 3.18312 17.6077 3.34974ZM14.5453 3.45887L16.0225 4.93607L14.4196 6.53896L12.5 4.61939C13.1246 4.08543 13.8233 3.69759 14.5453 3.45887ZM11.7809 5.3375L13.7005 7.25706L12.0976 8.85996L10.6175 7.37984C10.8621 6.64612 11.2557 5.95136 11.7809 5.3375ZM10.5103 10.4472C10.3378 9.83133 10.2959 9.19312 10.3622 8.56169L11.3785 9.57799L10.5103 10.4472ZM10.9342 11.4625L12.0986 10.2981L13.7015 11.901L12.538 13.0644C11.8657 12.6805 11.3161 12.128 10.9342 11.4625ZM13.5533 13.4863L14.4206 12.6191L15.4359 13.6344C14.783 13.7036 14.1468 13.6529 13.5533 13.4863ZM16.6168 13.3782L15.1396 11.901L16.7425 10.2981L18.6621 12.2176C18.0365 12.7506 17.3378 13.1385 16.6168 13.3782ZM19.3802 11.4985L17.4606 9.57896L19.0635 7.97607L20.5407 9.45327C20.301 10.1753 19.9132 10.8739 19.3802 11.4985ZM20.7969 8.27219L19.7816 7.25687L20.6488 6.38964C20.8164 6.98986 20.8651 7.62909 20.7969 8.27219Z" fill="black"/>
</svg>
