<svg width="24" height="24" viewBox="0 0 24 24" fill="none" xmlns="http://www.w3.org/2000/svg">
<path d="M22.9977 5.50183V6.50173H0.999902V5.50183H0V6.50173V15.0009V24H0.999902V15.0009H2.49976H3.49966H4.99951H5.99941H7.49927H8.49917H9.99902H10.9989H12.4988H13.4987H14.9985H15.9984H17.4983H18.4982H19.998H20.9979H22.9977V24H23.9977V15.0009V6.50173V5.50183H22.9977ZM2.49976 14.001H0.999902V12.5011H2.49976V14.001ZM2.49976 11.5012H0.999902V10.0014H2.49976V11.5012ZM2.49976 9.00149H0.999902V7.50164H2.49976V9.00149ZM4.99951 14.001H3.49966V12.5011H4.99951V14.001ZM4.99951 11.5012H3.49966V10.0014H4.99951V11.5012ZM4.99951 9.00149H3.49966V7.50164H4.99951V9.00149ZM7.49927 14.001H5.99941V12.5011H7.49927V14.001ZM7.49927 11.5012H5.99941V10.0014H7.49927V11.5012ZM7.49927 9.00149H5.99941V7.50164H7.49927V9.00149ZM9.99902 14.001H8.49917V12.5011H9.99902V14.001ZM9.99902 11.5012H8.49917V10.0014H9.99902V11.5012ZM9.99902 9.00149H8.49917V7.50164H9.99902V9.00149ZM12.4988 14.001H10.9989V12.5011H12.4988V14.001ZM12.4988 11.5012H10.9989V10.0014H12.4988V11.5012ZM12.4988 9.00149H10.9989V7.50164H12.4988V9.00149ZM14.9985 14.001H13.4987V12.5011H14.9985V14.001ZM14.9985 11.5012H13.4987V10.0014H14.9985V11.5012ZM14.9985 9.00149H13.4987V7.50164H14.9985V9.00149ZM17.4983 14.001H15.9984V12.5011H17.4983V14.001ZM17.4983 11.5012H15.9984V10.0014H17.4983V11.5012ZM17.4983 9.00149H15.9984V7.50164H17.4983V9.00149ZM19.998 14.001H18.4982V12.5011H19.998V14.001ZM19.998 11.5012H18.4982V10.0014H19.998V11.5012ZM19.998 9.00149H18.4982V7.50164H19.998V9.00149ZM22.9977 14.001H20.9979V12.5011H22.9977V14.001ZM22.9977 11.5012H20.9979V10.0014H22.9977V11.5012ZM22.9977 9.00149H20.9979V7.50164H22.9977V9.00149Z" fill="black"/>
<path d="M6.99805 4.99951C8.37792 4.99951 9.4978 3.87959 9.4978 2.49976C9.4978 1.12489 8.37792 0 6.99805 0C5.62318 0 4.49829 1.12489 4.49829 2.49976C4.49829 3.87959 5.62318 4.99951 6.99805 4.99951Z" fill="black"/>
</svg>
